<mxfile host="app.diagrams.net" modified="2022-12-08T06:06:33.836Z" agent="5.0 (Windows NT 10.0; Win64; x64) AppleWebKit/537.36 (KHTML, like Gecko) Chrome/107.0.0.0 Safari/537.36" etag="-lA271IUPbd_7ZZt-Wfe" version="20.6.0" type="github">
  <diagram id="gB3BNtg2bvb_x0dQ6MIg" name="第 1 页">
    <mxGraphModel dx="2249" dy="754" grid="1" gridSize="10" guides="1" tooltips="1" connect="1" arrows="1" fold="1" page="1" pageScale="1" pageWidth="827" pageHeight="1169" math="0" shadow="0">
      <root>
        <mxCell id="0" />
        <mxCell id="1" parent="0" />
        <mxCell id="9cnRKNxWYngUztfJHME0-3" style="edgeStyle=orthogonalEdgeStyle;rounded=0;orthogonalLoop=1;jettySize=auto;html=1;exitX=0.5;exitY=1;exitDx=0;exitDy=0;startArrow=none;" parent="1" source="9cnRKNxWYngUztfJHME0-4" target="9cnRKNxWYngUztfJHME0-2" edge="1">
          <mxGeometry relative="1" as="geometry" />
        </mxCell>
        <mxCell id="Q8OSuR3w9s7w2Fs7_V2b-13" style="edgeStyle=orthogonalEdgeStyle;rounded=0;orthogonalLoop=1;jettySize=auto;html=1;exitX=0.75;exitY=1;exitDx=0;exitDy=0;" edge="1" parent="1" source="9cnRKNxWYngUztfJHME0-1" target="Q8OSuR3w9s7w2Fs7_V2b-10">
          <mxGeometry relative="1" as="geometry" />
        </mxCell>
        <mxCell id="Q8OSuR3w9s7w2Fs7_V2b-16" style="edgeStyle=orthogonalEdgeStyle;rounded=0;orthogonalLoop=1;jettySize=auto;html=1;exitX=0;exitY=0.75;exitDx=0;exitDy=0;entryX=0;entryY=0.5;entryDx=0;entryDy=0;" edge="1" parent="1" source="9cnRKNxWYngUztfJHME0-1" target="Q8OSuR3w9s7w2Fs7_V2b-4">
          <mxGeometry relative="1" as="geometry">
            <Array as="points">
              <mxPoint x="50" y="65" />
              <mxPoint x="50" y="160" />
              <mxPoint x="-150" y="160" />
              <mxPoint x="-150" y="340" />
            </Array>
          </mxGeometry>
        </mxCell>
        <mxCell id="Q8OSuR3w9s7w2Fs7_V2b-17" value="PR" style="edgeLabel;html=1;align=center;verticalAlign=middle;resizable=0;points=[];" vertex="1" connectable="0" parent="Q8OSuR3w9s7w2Fs7_V2b-16">
          <mxGeometry x="-0.0301" y="-2" relative="1" as="geometry">
            <mxPoint as="offset" />
          </mxGeometry>
        </mxCell>
        <mxCell id="Q8OSuR3w9s7w2Fs7_V2b-28" style="edgeStyle=orthogonalEdgeStyle;rounded=0;orthogonalLoop=1;jettySize=auto;html=1;exitX=1;exitY=0.5;exitDx=0;exitDy=0;" edge="1" parent="1" source="9cnRKNxWYngUztfJHME0-1">
          <mxGeometry relative="1" as="geometry">
            <mxPoint x="310" y="471" as="targetPoint" />
            <Array as="points">
              <mxPoint x="140" y="40" />
              <mxPoint x="390" y="40" />
              <mxPoint x="390" y="471" />
            </Array>
          </mxGeometry>
        </mxCell>
        <mxCell id="Q8OSuR3w9s7w2Fs7_V2b-35" value="PR" style="edgeLabel;html=1;align=center;verticalAlign=middle;resizable=0;points=[];" vertex="1" connectable="0" parent="Q8OSuR3w9s7w2Fs7_V2b-28">
          <mxGeometry x="0.0158" y="-2" relative="1" as="geometry">
            <mxPoint as="offset" />
          </mxGeometry>
        </mxCell>
        <mxCell id="9cnRKNxWYngUztfJHME0-1" value="ry基础版本" style="rounded=1;whiteSpace=wrap;html=1;fillColor=#ffe6cc;strokeColor=#d79b00;" parent="1" vertex="1">
          <mxGeometry x="20" y="20" width="120" height="60" as="geometry" />
        </mxCell>
        <mxCell id="Q8OSuR3w9s7w2Fs7_V2b-5" style="edgeStyle=orthogonalEdgeStyle;rounded=0;orthogonalLoop=1;jettySize=auto;html=1;exitX=0.75;exitY=1;exitDx=0;exitDy=0;entryX=1;entryY=0.5;entryDx=0;entryDy=0;" edge="1" parent="1" source="9cnRKNxWYngUztfJHME0-2" target="Q8OSuR3w9s7w2Fs7_V2b-4">
          <mxGeometry relative="1" as="geometry">
            <Array as="points">
              <mxPoint x="50" y="250" />
              <mxPoint x="50" y="340" />
            </Array>
          </mxGeometry>
        </mxCell>
        <mxCell id="Q8OSuR3w9s7w2Fs7_V2b-7" style="edgeStyle=orthogonalEdgeStyle;rounded=0;orthogonalLoop=1;jettySize=auto;html=1;exitX=0.5;exitY=1;exitDx=0;exitDy=0;entryX=1;entryY=0.5;entryDx=0;entryDy=0;" edge="1" parent="1" source="9cnRKNxWYngUztfJHME0-2" target="Q8OSuR3w9s7w2Fs7_V2b-6">
          <mxGeometry relative="1" as="geometry" />
        </mxCell>
        <mxCell id="9cnRKNxWYngUztfJHME0-2" value="项目A后台管理系统" style="rounded=1;whiteSpace=wrap;html=1;fillColor=#dae8fc;strokeColor=#6c8ebf;" parent="1" vertex="1">
          <mxGeometry x="20" y="190" width="120" height="60" as="geometry" />
        </mxCell>
        <mxCell id="9cnRKNxWYngUztfJHME0-4" value="fork" style="text;html=1;strokeColor=none;fillColor=none;align=center;verticalAlign=middle;whiteSpace=wrap;rounded=0;" parent="1" vertex="1">
          <mxGeometry x="50" y="120" width="60" height="30" as="geometry" />
        </mxCell>
        <mxCell id="9cnRKNxWYngUztfJHME0-5" value="" style="edgeStyle=orthogonalEdgeStyle;rounded=0;orthogonalLoop=1;jettySize=auto;html=1;exitX=0.5;exitY=1;exitDx=0;exitDy=0;endArrow=none;" parent="1" source="9cnRKNxWYngUztfJHME0-1" target="9cnRKNxWYngUztfJHME0-4" edge="1">
          <mxGeometry relative="1" as="geometry">
            <mxPoint x="80" y="80" as="sourcePoint" />
            <mxPoint x="80" y="190" as="targetPoint" />
          </mxGeometry>
        </mxCell>
        <mxCell id="Q8OSuR3w9s7w2Fs7_V2b-14" style="edgeStyle=orthogonalEdgeStyle;rounded=0;orthogonalLoop=1;jettySize=auto;html=1;entryX=0;entryY=0.5;entryDx=0;entryDy=0;" edge="1" parent="1" source="Q8OSuR3w9s7w2Fs7_V2b-4" target="9cnRKNxWYngUztfJHME0-1">
          <mxGeometry relative="1" as="geometry">
            <Array as="points">
              <mxPoint x="-40" y="390" />
              <mxPoint x="-220" y="390" />
              <mxPoint x="-220" y="50" />
            </Array>
          </mxGeometry>
        </mxCell>
        <mxCell id="Q8OSuR3w9s7w2Fs7_V2b-15" value="PR" style="edgeLabel;html=1;align=center;verticalAlign=middle;resizable=0;points=[];" vertex="1" connectable="0" parent="Q8OSuR3w9s7w2Fs7_V2b-14">
          <mxGeometry x="0.0107" y="-1" relative="1" as="geometry">
            <mxPoint as="offset" />
          </mxGeometry>
        </mxCell>
        <mxCell id="Q8OSuR3w9s7w2Fs7_V2b-4" value="重构(rebuild)分支" style="shape=step;perimeter=stepPerimeter;whiteSpace=wrap;html=1;fixedSize=1;fillColor=#f8cecc;strokeColor=#b85450;" vertex="1" parent="1">
          <mxGeometry x="-110" y="310" width="140" height="60" as="geometry" />
        </mxCell>
        <mxCell id="Q8OSuR3w9s7w2Fs7_V2b-6" value="dev分支" style="shape=step;perimeter=stepPerimeter;whiteSpace=wrap;html=1;fixedSize=1;fillColor=#f8cecc;strokeColor=#b85450;" vertex="1" parent="1">
          <mxGeometry x="-110" y="420" width="140" height="60" as="geometry" />
        </mxCell>
        <mxCell id="Q8OSuR3w9s7w2Fs7_V2b-24" style="edgeStyle=orthogonalEdgeStyle;rounded=0;orthogonalLoop=1;jettySize=auto;html=1;exitX=0.5;exitY=1;exitDx=0;exitDy=0;entryX=0.5;entryY=0;entryDx=0;entryDy=0;" edge="1" parent="1" source="Q8OSuR3w9s7w2Fs7_V2b-10" target="Q8OSuR3w9s7w2Fs7_V2b-12">
          <mxGeometry relative="1" as="geometry" />
        </mxCell>
        <mxCell id="Q8OSuR3w9s7w2Fs7_V2b-31" style="edgeStyle=orthogonalEdgeStyle;rounded=0;orthogonalLoop=1;jettySize=auto;html=1;entryX=0.1;entryY=0.483;entryDx=0;entryDy=0;entryPerimeter=0;" edge="1" parent="1" source="Q8OSuR3w9s7w2Fs7_V2b-10" target="Q8OSuR3w9s7w2Fs7_V2b-11">
          <mxGeometry relative="1" as="geometry">
            <Array as="points">
              <mxPoint x="160" y="230" />
              <mxPoint x="160" y="449" />
            </Array>
          </mxGeometry>
        </mxCell>
        <mxCell id="Q8OSuR3w9s7w2Fs7_V2b-10" value="项目B后台管理系统" style="rounded=1;whiteSpace=wrap;html=1;fillColor=#dae8fc;strokeColor=#6c8ebf;" vertex="1" parent="1">
          <mxGeometry x="200" y="190" width="120" height="60" as="geometry" />
        </mxCell>
        <mxCell id="Q8OSuR3w9s7w2Fs7_V2b-33" style="edgeStyle=orthogonalEdgeStyle;rounded=0;orthogonalLoop=1;jettySize=auto;html=1;exitX=1;exitY=0.5;exitDx=0;exitDy=0;entryX=1;entryY=0.75;entryDx=0;entryDy=0;" edge="1" parent="1" source="Q8OSuR3w9s7w2Fs7_V2b-11" target="9cnRKNxWYngUztfJHME0-1">
          <mxGeometry relative="1" as="geometry" />
        </mxCell>
        <mxCell id="Q8OSuR3w9s7w2Fs7_V2b-34" value="PR" style="edgeLabel;html=1;align=center;verticalAlign=middle;resizable=0;points=[];" vertex="1" connectable="0" parent="Q8OSuR3w9s7w2Fs7_V2b-33">
          <mxGeometry x="-0.0179" y="1" relative="1" as="geometry">
            <mxPoint as="offset" />
          </mxGeometry>
        </mxCell>
        <mxCell id="Q8OSuR3w9s7w2Fs7_V2b-11" value="重构(rebuild)分支" style="shape=step;perimeter=stepPerimeter;whiteSpace=wrap;html=1;fixedSize=1;fillColor=#f8cecc;strokeColor=#b85450;" vertex="1" parent="1">
          <mxGeometry x="190" y="420" width="140" height="60" as="geometry" />
        </mxCell>
        <mxCell id="Q8OSuR3w9s7w2Fs7_V2b-12" value="dev分支" style="shape=step;perimeter=stepPerimeter;whiteSpace=wrap;html=1;fixedSize=1;fillColor=#f8cecc;strokeColor=#b85450;" vertex="1" parent="1">
          <mxGeometry x="190" y="310" width="140" height="60" as="geometry" />
        </mxCell>
      </root>
    </mxGraphModel>
  </diagram>
</mxfile>
